<svg xmlns="http://www.w3.org/2000/svg" width="320" height="320" viewBox="0 0 320 320">
  <g id="그룹_3" data-name="그룹 3" transform="translate(7007 1710)">
    <g id="그룹_2" data-name="그룹 2" transform="translate(11 -68)">
      <g id="그룹_1" data-name="그룹 1">
        <rect id="사각형_1" data-name="사각형 1" width="320" height="320" transform="translate(-7018 -1642)" fill="#fff"/>
        <rect id="사각형_2" data-name="사각형 2" width="22" height="120" rx="11" transform="matrix(0.951, 0.309, -0.309, 0.951, -6956.92, -1542.463)"/>
        <rect id="사각형_3" data-name="사각형 3" width="22" height="150" rx="11" transform="translate(-6961.247 -1536.063) rotate(-16)"/>
        <rect id="사각형_4" data-name="사각형 4" width="22" height="224" rx="11" transform="translate(-6889.343 -1618.558) rotate(9)"/>
        <rect id="사각형_6" data-name="사각형 6" width="22" height="124" rx="11" transform="translate(-6850.819 -1575.206) rotate(14)"/>
        <rect id="사각형_7" data-name="사각형 7" width="22" height="225" rx="11" transform="matrix(0.996, -0.087, 0.087, 0.996, -6854.444, -1572.032)"/>
        <rect id="사각형_8" data-name="사각형 8" width="22" height="165" rx="11" transform="matrix(0.998, -0.07, 0.07, 0.998, -6891.728, -1616.032)"/>
        <rect id="사각형_10" data-name="사각형 10" width="22" height="266" rx="11" transform="translate(-6786.491 -1613.314) rotate(11)"/>
        <rect id="사각형_11" data-name="사각형 11" width="22" height="178" rx="11" transform="translate(-6790.376 -1608.618) rotate(-10)"/>
      </g>
    </g>
  </g>
</svg>
